<svg xmlns="http://www.w3.org/2000/svg" viewBox="0 0 1200 800" role="img" aria-label="Original photo-style placeholder for Detroit artists">
<defs><linearGradient id="g" x1="0" y1="0" x2="1" y2="1"><stop offset="0" stop-color="#ff3f9c"/><stop offset=".48" stop-color="#7b4dff"/><stop offset="1" stop-color="#1597ff"/></linearGradient><filter id="blur"><feGaussianBlur stdDeviation="28"/></filter></defs>
<rect width="1200" height="800" fill="#060914"/><circle cx="940" cy="120" r="230" fill="#1597ff" opacity=".28" filter="url(#blur)"/><circle cx="210" cy="620" r="260" fill="#ff3f9c" opacity=".22" filter="url(#blur)"/><rect x="0" y="520" width="1200" height="280" fill="#05070d" opacity=".72"/>
<g fill="url(#g)" opacity=".9"><rect x="60" y="360" width="45" height="280" rx="6"/><rect x="130" y="322" width="45" height="318" rx="6"/><rect x="200" y="284" width="45" height="356" rx="6"/><rect x="270" y="246" width="45" height="394" rx="6"/><rect x="340" y="208" width="45" height="432" rx="6"/><rect x="410" y="360" width="45" height="280" rx="6"/><rect x="480" y="322" width="45" height="318" rx="6"/><rect x="550" y="284" width="45" height="356" rx="6"/><rect x="620" y="246" width="45" height="394" rx="6"/><rect x="690" y="208" width="45" height="432" rx="6"/><rect x="760" y="360" width="45" height="280" rx="6"/><rect x="830" y="322" width="45" height="318" rx="6"/><rect x="900" y="284" width="45" height="356" rx="6"/><rect x="970" y="246" width="45" height="394" rx="6"/><rect x="1040" y="208" width="45" height="432" rx="6"/><rect x="1110" y="360" width="45" height="280" rx="6"/></g>
<g opacity=".55" fill="#fff"><circle cx="85" cy="390" r="5"/><circle cx="155" cy="428" r="5"/><circle cx="225" cy="466" r="5"/><circle cx="295" cy="504" r="5"/><circle cx="365" cy="390" r="5"/><circle cx="435" cy="428" r="5"/><circle cx="505" cy="466" r="5"/><circle cx="575" cy="504" r="5"/><circle cx="645" cy="390" r="5"/><circle cx="715" cy="428" r="5"/><circle cx="785" cy="466" r="5"/><circle cx="855" cy="504" r="5"/><circle cx="925" cy="390" r="5"/><circle cx="995" cy="428" r="5"/><circle cx="1065" cy="466" r="5"/></g>
<text x="70" y="120" fill="#fff" font-family="Arial, sans-serif" font-size="62" font-weight="900" letter-spacing="3">DETROIT</text>
<text x="74" y="175" fill="#aebbed" font-family="Arial, sans-serif" font-size="26" font-weight="700">CITY ARTIST SPOTLIGHT · COMING SOON</text>
</svg>